<?xml version="1.0" standalone="no"?><svg xmlns="http://www.w3.org/2000/svg" viewBox="0 0 1440 320"><path fill="#000b76" fill-opacity="1" d="M0,32L6.2,64C12.3,96,25,160,37,170.7C49.2,181,62,139,74,106.7C86.2,75,98,53,111,64C123.1,75,135,117,148,138.7C160,160,172,160,185,149.3C196.9,139,209,117,222,138.7C233.8,160,246,224,258,240C270.8,256,283,224,295,224C307.7,224,320,256,332,245.3C344.6,235,357,181,369,160C381.5,139,394,149,406,165.3C418.5,181,431,203,443,213.3C455.4,224,468,224,480,218.7C492.3,213,505,203,517,213.3C529.2,224,542,256,554,234.7C566.2,213,578,139,591,106.7C603.1,75,615,85,628,90.7C640,96,652,96,665,101.3C676.9,107,689,117,702,128C713.8,139,726,149,738,165.3C750.8,181,763,203,775,213.3C787.7,224,800,224,812,218.7C824.6,213,837,203,849,197.3C861.5,192,874,192,886,208C898.5,224,911,256,923,250.7C935.4,245,948,203,960,170.7C972.3,139,985,117,997,133.3C1009.2,149,1022,203,1034,192C1046.2,181,1058,107,1071,85.3C1083.1,64,1095,96,1108,133.3C1120,171,1132,213,1145,224C1156.9,235,1169,213,1182,181.3C1193.8,149,1206,107,1218,106.7C1230.8,107,1243,149,1255,160C1267.7,171,1280,149,1292,160C1304.6,171,1317,213,1329,234.7C1341.5,256,1354,256,1366,240C1378.5,224,1391,192,1403,192C1415.4,192,1428,224,1434,240L1440,256L1440,320L1433.8,320C1427.7,320,1415,320,1403,320C1390.8,320,1378,320,1366,320C1353.8,320,1342,320,1329,320C1316.9,320,1305,320,1292,320C1280,320,1268,320,1255,320C1243.1,320,1231,320,1218,320C1206.2,320,1194,320,1182,320C1169.2,320,1157,320,1145,320C1132.3,320,1120,320,1108,320C1095.4,320,1083,320,1071,320C1058.5,320,1046,320,1034,320C1021.5,320,1009,320,997,320C984.6,320,972,320,960,320C947.7,320,935,320,923,320C910.8,320,898,320,886,320C873.8,320,862,320,849,320C836.9,320,825,320,812,320C800,320,788,320,775,320C763.1,320,751,320,738,320C726.2,320,714,320,702,320C689.2,320,677,320,665,320C652.3,320,640,320,628,320C615.4,320,603,320,591,320C578.5,320,566,320,554,320C541.5,320,529,320,517,320C504.6,320,492,320,480,320C467.7,320,455,320,443,320C430.8,320,418,320,406,320C393.8,320,382,320,369,320C356.9,320,345,320,332,320C320,320,308,320,295,320C283.1,320,271,320,258,320C246.2,320,234,320,222,320C209.2,320,197,320,185,320C172.3,320,160,320,148,320C135.4,320,123,320,111,320C98.5,320,86,320,74,320C61.5,320,49,320,37,320C24.6,320,12,320,6,320L0,320Z"></path></svg>