<?xml version="1.0" standalone="no"?>
<!DOCTYPE svg PUBLIC "-//W3C//DTD SVG 20010904//EN"
 "http://www.w3.org/TR/2001/REC-SVG-20010904/DTD/svg10.dtd">
<svg version="1.0" xmlns="http://www.w3.org/2000/svg"
 width="1920.000000pt" height="1920.000000pt" viewBox="0 0 1920.000000 1920.000000"
 preserveAspectRatio="xMidYMid meet">
<metadata>
Created by potrace 1.11, written by Peter Selinger 2001-2013
</metadata>
<g transform="translate(0.000000,1920.000000) scale(0.100000,-0.100000)"
fill="#000000" stroke="none">
<path d="M0 9600 l0 -9600 9600 0 9600 0 0 9600 0 9600 -9600 0 -9600 0 0
-9600z m16067 2615 c148 -44 225 -176 193 -331 -7 -33 -185 -486 -397 -1007
-211 -522 -383 -951 -380 -953 2 -2 159 111 348 251 189 140 374 271 410 290
172 90 316 81 415 -27 54 -58 68 -102 62 -197 -10 -156 -63 -218 -412 -472
-143 -105 -265 -195 -269 -199 -4 -4 94 -166 219 -361 268 -419 289 -458 289
-549 -1 -80 -25 -136 -89 -207 -82 -91 -217 -140 -315 -113 -25 7 -61 28 -88
53 -29 26 -175 236 -395 564 -192 288 -353 523 -356 523 -4 0 -83 -190 -177
-421 -93 -232 -187 -450 -208 -486 -50 -82 -130 -164 -192 -196 -142 -71 -305
-56 -398 37 -71 71 -92 154 -64 261 17 63 1295 3223 1340 3312 37 73 128 167
191 198 90 44 189 55 273 30z m-13697 -176 c55 -25 105 -71 133 -124 43 -80
34 -177 -96 -979 -65 -396 -117 -728 -117 -738 0 -15 14 -7 68 35 157 126 267
185 395 211 152 32 322 12 440 -51 73 -39 182 -149 212 -215 75 -165 74 -253
-10 -793 -36 -230 -64 -421 -63 -425 2 -4 72 9 156 28 144 34 153 37 148 57
-16 65 -28 234 -22 338 15 295 105 534 291 772 190 244 420 390 707 451 125
27 376 24 483 -5 255 -69 433 -230 499 -450 9 -30 21 -95 27 -144 41 -341
-154 -620 -496 -706 -110 -27 -193 -37 -535 -62 -162 -11 -297 -23 -299 -25
-2 -2 0 -19 3 -39 8 -43 54 -97 102 -120 74 -35 130 -35 619 2 603 45 667 41
750 -42 47 -46 65 -98 65 -182 0 -180 -121 -306 -335 -347 -44 -8 -269 -29
-500 -47 -626 -46 -781 -37 -971 57 l-72 35 -61 -40 c-82 -53 -132 -68 -491
-153 -272 -63 -316 -71 -410 -72 -98 -1 -110 1 -171 30 -86 41 -142 92 -176
162 -26 53 -28 65 -27 177 0 98 12 189 63 500 35 211 63 414 64 456 1 88 -17
129 -74 167 -30 21 -43 23 -110 20 -195 -11 -322 -150 -398 -438 -11 -41 -57
-300 -102 -574 -85 -527 -104 -607 -167 -698 -72 -104 -177 -167 -292 -176
-172 -12 -290 98 -290 271 0 61 533 3399 560 3512 44 180 144 318 263 364 71
27 177 28 237 0z m1450 -465 c-12 -66 -23 -120 -24 -121 -3 -3 -181 147 -183
155 -3 7 219 92 225 87 2 -2 -6 -56 -18 -121z m-692 -70 c23 -3 42 -7 42 -10
0 -5 -138 -214 -151 -228 -4 -5 -37 51 -74 124 l-66 132 103 -7 c57 -3 122 -8
146 -11z m467 -25 c69 -26 158 -105 191 -171 48 -94 48 -232 0 -327 -31 -61
-97 -126 -161 -159 -73 -38 -206 -43 -290 -11 -83 31 -173 121 -204 204 -32
85 -27 207 12 288 35 70 119 149 190 176 72 28 188 28 262 0z m431 -696 c-2
-3 -61 -1 -131 3 l-125 9 72 112 73 113 58 -116 c32 -64 56 -118 53 -121z
m8731 108 c73 -37 109 -91 137 -205 19 -77 36 -116 62 -137 14 -11 102 -15
493 -20 522 -6 534 -7 619 -69 65 -46 86 -98 85 -200 -1 -99 -18 -155 -67
-214 -61 -75 -168 -118 -325 -132 l-81 -7 -127 -131 c-227 -232 -334 -401
-341 -539 -5 -82 14 -141 61 -187 53 -52 102 -60 366 -60 252 0 336 -9 413
-42 96 -41 133 -112 126 -238 -10 -164 -99 -266 -279 -317 -57 -16 -107 -18
-469 -18 l-405 0 -82 28 c-198 67 -346 232 -404 452 -28 107 -30 299 -5 398
47 179 151 354 341 572 36 41 65 77 65 80 0 3 -66 4 -146 3 l-146 -3 -52 -130
c-74 -184 -112 -251 -182 -322 -50 -50 -71 -65 -119 -78 -133 -39 -287 22
-345 135 -28 56 -33 109 -15 185 15 68 350 906 404 1013 54 106 135 179 226
203 47 13 150 2 192 -20z m5162 13 c34 -10 69 -30 98 -57 80 -74 93 -125 68
-273 -37 -213 0 -318 218 -620 131 -183 193 -286 238 -399 79 -200 90 -423 30
-605 -40 -119 -86 -194 -175 -288 -156 -164 -335 -252 -571 -281 -113 -14
-757 -14 -845 -1 -90 14 -167 55 -205 108 -28 41 -30 49 -30 140 0 81 4 105
24 144 29 60 91 123 151 153 104 53 135 57 465 64 241 6 319 11 352 23 163 60
227 176 189 340 -13 55 -177 408 -189 408 -2 0 -19 -38 -38 -85 -66 -165 -163
-276 -268 -307 -68 -19 -167 -15 -222 9 -59 27 -125 85 -152 137 -29 55 -28
148 2 235 26 75 419 880 469 961 106 171 242 239 391 194z m-14747 -138 c59
-50 104 -93 100 -97 -18 -17 -282 -106 -282 -95 0 7 11 75 25 152 14 76 25
140 25 142 0 7 30 -16 132 -102z m3486 -1 c51 -22 100 -71 125 -125 36 -80 34
-196 -17 -694 -25 -248 -44 -451 -42 -453 5 -5 29 28 386 542 172 248 337 480
366 516 106 130 238 210 381 231 209 30 385 -68 438 -245 24 -81 17 -222 -29
-627 -24 -206 -41 -377 -39 -379 4 -5 -55 -82 399 514 415 545 506 649 608
699 203 98 417 23 482 -167 39 -114 0 -257 -111 -412 -52 -72 -1125 -1426
-1244 -1569 -205 -248 -436 -324 -657 -216 -67 33 -164 126 -207 201 -44 75
-70 198 -64 299 4 66 71 464 103 610 5 25 5 25 -14 5 -11 -11 -155 -216 -322
-455 -166 -239 -326 -464 -354 -499 -61 -75 -162 -154 -232 -180 -260 -99
-530 66 -599 364 -24 104 -21 214 29 950 35 508 51 690 66 754 58 242 215 370
438 356 39 -3 89 -12 110 -20z m4332 -205 c114 -14 189 -35 287 -80 102 -47
160 -87 242 -164 116 -111 199 -251 243 -411 30 -110 32 -387 4 -515 -61 -282
-187 -528 -366 -714 -137 -143 -269 -224 -432 -265 -206 -53 -653 -50 -873 4
-115 29 -182 70 -290 179 -79 79 -110 118 -142 181 -80 157 -106 276 -106 480
0 273 67 494 216 718 74 112 260 300 370 375 248 170 558 247 847 212z"/>
<path d="M4672 10031 c-77 -27 -147 -78 -199 -146 -50 -66 -87 -134 -79 -143
9 -8 342 18 418 33 118 24 168 62 168 129 0 50 -29 99 -72 126 -43 26 -161 27
-236 1z"/>
<path d="M10675 9946 c-114 -36 -227 -125 -311 -242 -153 -215 -177 -502 -52
-631 16 -17 58 -44 92 -60 57 -26 70 -28 186 -28 190 0 274 38 376 168 105
134 156 278 156 442 1 227 -130 366 -341 364 -36 0 -84 -6 -106 -13z"/>
</g>
</svg>
